<svg width="56" height="51" viewBox="0 0 56 51" fill="none" xmlns="http://www.w3.org/2000/svg">
<path d="M56 38.25C52.4975 38.25 52.0925 35.0625 46.6875 35.0625C41.2588 35.0625 40.8344 38.25 37.3438 38.25C33.8819 38.25 33.412 35.0625 28 35.0625C22.6448 35.0625 22.0977 38.25 18.6875 38.25C15.169 38.25 14.7873 35.0625 9.34375 35.0625C3.90037 35.0625 3.51213 38.25 0 38.25V30.2812C0 27.6416 2.6875 25.5 6 25.5H8V11.1562H16V25.5H24V11.1562H32V25.5H40V11.1562H48V25.5H50C53.3125 25.5 56 27.6416 56 30.2812V38.25ZM56 51H0V41.4375C5.4195 41.4375 5.84587 38.25 9.34375 38.25C12.8376 38.25 13.2504 41.4375 18.6875 41.4375C24.0429 41.4375 24.5896 38.25 28 38.25C31.5185 38.25 31.9001 41.4375 37.3438 41.4375C42.7634 41.4375 43.1896 38.25 46.6875 38.25C50.1235 38.25 50.594 41.4375 56 41.4375V51ZM12 9.5625C9.78125 9.5625 8 8.14307 8 6.375C8 3.28711 12 4.08398 12 0C13.5 0 16 2.93848 16 5.57812C16 8.21777 14.2188 9.5625 12 9.5625ZM28 9.5625C25.7812 9.5625 24 8.14307 24 6.375C24 3.28711 28 4.08398 28 0C29.5 0 32 2.93848 32 5.57812C32 8.21777 30.2188 9.5625 28 9.5625ZM44 9.5625C41.7812 9.5625 40 8.14307 40 6.375C40 3.28711 44 4.08398 44 0C45.5 0 48 2.93848 48 5.57812C48 8.21777 46.2188 9.5625 44 9.5625Z" fill="black"/>
</svg>
