<svg width="706" height="700" viewBox="0 0 706 700" fill="none" xmlns="http://www.w3.org/2000/svg">
<path d="M234.157 450.438C237.912 452.862 241.864 455.456 246.054 458.298L246.354 458.501L246.667 458.682C309.245 494.812 373.668 494.882 436.374 458.676L436.688 458.495L436.988 458.291C441.392 455.303 445.533 452.589 449.457 450.061C458.542 469.449 470.318 482.958 484.882 491.895C501.63 502.171 520.973 505.716 541.553 506.594C627.319 528.158 665.16 576.349 682.042 618.585C690.608 640.014 693.868 660.174 694.977 674.986C695.416 680.842 695.516 685.835 695.479 689.706H529.52H475.33L341.519 689.703H10.1343C11.5107 639.25 23.3485 605.367 40.129 581.395C58.0242 555.831 82.2888 540.453 108.405 528.505C120.316 523.056 132.411 518.406 144.466 513.771C145.683 513.303 146.9 512.835 148.116 512.366C161.228 507.315 174.316 502.17 186.213 496.105C206.516 485.754 224.387 472.19 234.157 450.438ZM695.079 698.625C695.079 698.627 695.079 698.627 695.079 698.624L695.079 698.625Z" fill="#FFCD85" stroke="black" stroke-width="20"/>
<path d="M161.714 289.445C158.539 272.896 154.548 252.093 151.736 230.575C151.818 230.543 151.903 230.509 151.99 230.475C153.342 229.945 155.284 229.16 157.661 228.137C162.411 226.093 168.912 223.092 175.912 219.265C189.227 211.986 204.77 201.497 213.234 188.631C214.35 188.962 215.95 189.424 217.991 189.978C222.236 191.131 228.388 192.684 236.037 194.292C251.332 197.508 272.644 200.951 296.713 201.854C343.824 203.622 401.92 195.673 445.935 156.733C446.848 158.821 448.211 161.79 450.03 165.352C453.669 172.482 459.145 182.018 466.492 191.62C480.684 210.168 502.181 229.371 531.208 231.307C528.403 252.556 524.467 273.068 521.328 289.427C519.772 297.539 518.411 304.629 517.482 310.283C509.98 355.842 503.207 380.421 493.695 396.662C484.267 412.759 472.059 420.842 452.736 433.139C452.291 433.422 451.843 433.707 451.392 433.994C445.038 438.031 437.958 442.53 430.045 447.896C371.265 481.806 311.659 481.741 252.995 447.902C245.146 442.583 238.112 438.109 231.798 434.093C231.295 433.773 230.797 433.457 230.303 433.143C210.982 420.842 198.774 412.757 189.345 396.659C179.833 380.418 173.059 355.84 165.557 310.283C164.628 304.635 163.269 297.55 161.714 289.445Z" fill="#FFCD85" stroke="black" stroke-width="5"/>
<path d="M212.902 183.303L211.013 182.695L209.992 184.396C202.549 196.8 187.291 207.348 173.514 214.88C166.684 218.613 160.33 221.546 155.684 223.546C153.864 224.329 152.309 224.968 151.092 225.455C147.604 196.592 146.614 167.611 152.705 147.227L150.31 146.511L152.705 147.227C180.188 55.2353 255.359 2.5 341.52 2.5C427.681 2.50617 502.856 55.2309 530.333 147.226L532.559 146.561L530.333 147.226C536.484 167.819 535.412 197.185 531.838 226.339C504.78 224.653 484.363 206.752 470.463 188.584C463.348 179.285 458.027 170.023 454.483 163.081C452.713 159.613 451.39 156.731 450.513 154.723C450.074 153.719 449.747 152.934 449.531 152.405C449.423 152.14 449.343 151.938 449.291 151.806C449.265 151.739 449.245 151.69 449.233 151.658L449.22 151.624L449.217 151.617L449.217 151.616L449.217 151.616L447.898 148.161L445.183 150.673C402.292 190.364 344.412 198.642 296.901 196.859C273.184 195.969 252.161 192.574 237.066 189.401C229.521 187.815 223.465 186.285 219.301 185.155C217.22 184.589 215.612 184.124 214.528 183.801C213.986 183.639 213.576 183.514 213.303 183.429C213.166 183.387 213.064 183.355 212.997 183.333L212.923 183.31L212.906 183.304L212.903 183.303C212.903 183.303 212.902 183.303 212.899 183.315L212.902 183.303Z" fill="#565164" stroke="black" stroke-width="5"/>
<path d="M242.964 135.582L242.965 135.58C244.608 132.909 246.356 130.285 248.16 127.784L248.161 127.783C264.504 105.148 287.251 89.9753 313.918 83.9581L242.964 135.582ZM242.964 135.582C240.261 139.981 235.564 142.408 230.742 142.408C228.183 142.408 225.598 141.723 223.252 140.283L242.964 135.582ZM307.612 56.0024L307.611 56.0026C274.033 63.5799 245.45 82.5839 224.925 111.01L224.925 111.01C222.707 114.081 220.562 117.298 218.552 120.571L218.552 120.572C214.406 127.313 216.511 136.137 223.252 140.283L307.612 56.0024ZM307.612 56.0024C315.325 54.2601 322.998 59.1071 324.743 66.8274M307.612 56.0024L324.743 66.8274M324.743 66.8274C326.482 74.5463 321.638 82.2152 313.919 83.958L324.743 66.8274Z" fill="#000003" stroke="black" stroke-width="5"/>
<path d="M358.233 82.0322L358.209 82.0289L358.185 82.0261C350.399 81.1175 344.777 74.1104 345.6 66.2947L345.6 66.2942C346.428 58.4274 353.472 52.7184 361.339 53.5445C361.592 53.5732 361.846 53.6048 362.106 53.6397C369.942 54.716 375.482 61.9302 374.444 69.7343L374.444 69.7348C373.485 76.9489 367.388 82.1858 360.338 82.1858C359.734 82.1858 359.129 82.1483 358.513 82.0703C358.492 82.0672 358.473 82.0646 358.463 82.0632L358.377 82.0514L358.233 82.0322Z" fill="#000003" stroke="black" stroke-width="5"/>
<path d="M292.369 294.103C292.369 304.195 284.131 312.431 274.041 312.431C263.947 312.431 255.713 304.196 255.713 294.103C255.713 284.012 263.948 275.776 274.041 275.776C284.131 275.776 292.369 284.011 292.369 294.103Z" fill="#000003" stroke="black" stroke-width="5"/>
<path d="M427.339 294.103C427.339 304.196 419.102 312.431 409.011 312.431C398.92 312.431 390.683 304.196 390.683 294.103C390.683 284.012 398.921 275.776 409.011 275.776C419.104 275.776 427.339 284.01 427.339 294.103Z" fill="#000003" stroke="black" stroke-width="5"/>
</svg>
