<svg width="546" height="427" viewBox="0 0 546 427" fill="none" xmlns="http://www.w3.org/2000/svg">
<g clip-path="url(#clip0_351_73)">
<path d="M24.448 181.304C16.6827 181.304 10.7947 179.171 6.784 174.904C2.85867 170.637 0.896 165.261 0.896 158.776C0.896 154.168 1.83467 149.56 3.712 144.952C5.67467 140.259 8.448 136.163 12.032 132.664C15.616 129.165 19.7973 126.819 24.576 125.624C21.9307 123.747 19.968 121.485 18.688 118.84C17.408 116.109 16.768 113.251 16.768 110.264C16.768 105.827 17.9627 101.475 20.352 97.208C22.8267 92.9413 26.1973 89.4853 30.464 86.84C34.816 84.1093 39.5947 82.744 44.8 82.744C50.176 82.744 54.5707 84.152 57.984 86.968C61.3973 89.784 63.104 93.7093 63.104 98.744C63.104 102.499 62.1653 105.656 60.288 108.216C58.4107 110.776 56.192 112.056 53.632 112.056C51.328 112.056 49.3227 110.904 47.616 108.6C49.152 108.088 50.4747 106.68 51.584 104.376C52.6933 102.072 53.248 99.768 53.248 97.464C53.248 94.9893 52.5653 93.1973 51.2 92.088C49.8347 90.8933 48.1707 90.296 46.208 90.296C43.7333 90.296 41.472 91.192 39.424 92.984C37.4613 94.6907 35.9253 96.952 34.816 99.768C33.7067 102.499 33.152 105.357 33.152 108.344C33.152 112.44 34.2187 116.067 36.352 119.224C38.4853 122.296 41.728 124.387 46.08 125.496C41.728 126.435 37.8027 128.568 34.304 131.896C30.8053 135.224 28.0747 139.107 26.112 143.544C24.1493 147.896 23.168 152.077 23.168 156.088C23.168 159.928 24.1493 163.043 26.112 165.432C28.16 167.821 31.232 169.016 35.328 169.016C39.5947 169.016 44.032 167.864 48.64 165.56C53.3333 163.171 56.7893 159.971 59.008 155.96L61.952 157.24C58.624 164.579 53.504 170.424 46.592 174.776C39.68 179.128 32.2987 181.304 24.448 181.304ZM166.448 181.304C158.683 181.304 152.795 179.171 148.784 174.904C144.859 170.637 142.896 165.261 142.896 158.776C142.896 154.168 143.835 149.56 145.712 144.952C147.675 140.259 150.448 136.163 154.032 132.664C157.616 129.165 161.797 126.819 166.576 125.624C163.931 123.747 161.968 121.485 160.688 118.84C159.408 116.109 158.768 113.251 158.768 110.264C158.768 105.827 159.963 101.475 162.352 97.208C164.827 92.9413 168.197 89.4853 172.464 86.84C176.816 84.1093 181.595 82.744 186.8 82.744C192.176 82.744 196.571 84.152 199.984 86.968C203.397 89.784 205.104 93.7093 205.104 98.744C205.104 102.499 204.165 105.656 202.288 108.216C200.411 110.776 198.192 112.056 195.632 112.056C193.328 112.056 191.323 110.904 189.616 108.6C191.152 108.088 192.475 106.68 193.584 104.376C194.693 102.072 195.248 99.768 195.248 97.464C195.248 94.9893 194.565 93.1973 193.2 92.088C191.835 90.8933 190.171 90.296 188.208 90.296C185.733 90.296 183.472 91.192 181.424 92.984C179.461 94.6907 177.925 96.952 176.816 99.768C175.707 102.499 175.152 105.357 175.152 108.344C175.152 112.44 176.219 116.067 178.352 119.224C180.485 122.296 183.728 124.387 188.08 125.496C183.728 126.435 179.803 128.568 176.304 131.896C172.805 135.224 170.075 139.107 168.112 143.544C166.149 147.896 165.168 152.077 165.168 156.088C165.168 159.928 166.149 163.043 168.112 165.432C170.16 167.821 173.232 169.016 177.328 169.016C181.595 169.016 186.032 167.864 190.64 165.56C195.333 163.171 198.789 159.971 201.008 155.96L203.952 157.24C200.624 164.579 195.504 170.424 188.592 174.776C181.68 179.128 174.299 181.304 166.448 181.304ZM231.854 91.32C226.051 93.368 221.614 96.6107 218.542 101.048C215.555 105.4 214.062 110.691 214.062 116.92C214.062 119.651 214.361 122.168 214.958 124.472C215.555 126.691 216.409 128.525 217.518 129.976C212.057 129.976 208.003 128.867 205.358 126.648C202.798 124.344 201.518 120.845 201.518 116.152C201.518 110.179 203.267 104.632 206.766 99.512C210.265 94.3067 215.001 90.168 220.974 87.096C226.947 84.024 233.433 82.488 240.43 82.488C242.393 82.488 244.099 82.616 245.55 82.872C247.001 83.128 248.665 83.5973 250.542 84.28L265.902 152.76L280.238 83.256H292.654L271.79 179H254.126L239.278 115.512L224.686 179H212.526L231.854 91.32ZM324.522 94.264H322.986C315.391 94.264 309.461 96.184 305.194 100.024C301.013 103.779 298.922 110.477 298.922 120.12C298.922 123.277 299.221 125.496 299.818 126.776C300.415 127.971 300.714 128.653 300.714 128.824C296.106 128.824 292.65 127.885 290.346 126.008C288.127 124.045 287.018 120.845 287.018 116.408C287.018 110.349 288.511 104.845 291.498 99.896C294.485 94.8613 299.221 90.808 305.706 87.736C312.277 84.664 320.597 83.128 330.666 83.128C336.298 83.128 342.357 83.64 348.842 84.664C354.303 85.6027 359.167 86.072 363.434 86.072C368.895 86.072 373.845 85.176 378.282 83.384C378.111 88.9307 376.703 93.0267 374.058 95.672C371.413 98.3173 367.487 99.64 362.282 99.64C359.551 99.64 356.821 99.4267 354.09 99C351.359 98.5733 347.477 97.848 342.442 96.824L324.778 179H306.346L324.522 94.264Z" fill="black"/>
<path d="M433.53 9C414.869 9 399.688 24.224 399.688 42.9359C399.688 58.7167 412.491 71.5557 428.229 71.5557C441.627 71.5557 452.527 60.6255 452.527 47.1904C452.527 43.1298 449.244 39.8376 445.195 39.8376C441.146 39.8376 437.863 43.1298 437.863 47.1904C437.863 52.5166 433.541 56.8501 428.229 56.8501C420.578 56.8501 414.353 50.6085 414.353 42.9362C414.353 32.3325 422.956 23.7062 433.53 23.7062C447.759 23.7062 459.335 35.315 459.335 49.5827C459.335 68.431 444.043 83.7658 425.246 83.7658H361.698C359.468 80.7893 355.919 78.8637 351.921 78.8637H324.221C317.471 78.8634 312 84.3499 312 91.1182C312 97.8866 317.471 103.373 324.221 103.373H351.921C355.919 103.373 359.468 101.447 361.698 98.471H425.246C452.129 98.471 474 76.5399 474 49.5824C474 27.2052 455.846 9 433.53 9Z" fill="black"/>
<path d="M268.104 308.664C262.984 308.664 257.779 306.403 252.488 301.88L251.464 307H233.032L250.44 225.592L269.384 223.032L254.024 294.84C256.413 296.547 258.845 297.4 261.32 297.4C266.184 297.4 270.451 294.584 274.12 288.952C277.875 283.32 280.776 276.152 282.824 267.448C284.872 258.744 285.896 249.955 285.896 241.08C285.896 232.717 284.232 226.616 280.904 222.776C277.661 218.851 273.096 216.888 267.208 216.888C260.808 216.888 255.048 218.168 249.928 220.728C244.893 223.203 240.925 226.787 238.024 231.48C235.123 236.173 233.672 241.677 233.672 247.992C233.672 251.149 233.971 253.368 234.568 254.648C235.165 255.843 235.464 256.525 235.464 256.696C231.027 256.696 227.613 255.757 225.224 253.88C222.92 252.003 221.768 248.973 221.768 244.792C221.768 238.989 223.944 233.485 228.296 228.28C232.648 223.075 238.451 218.893 245.704 215.736C253.043 212.579 260.936 211 269.384 211C281.075 211 289.693 214.456 295.24 221.368C300.787 228.28 303.56 237.112 303.56 247.864C303.56 257.592 301.896 267.192 298.568 276.664C295.325 286.051 290.973 293.731 285.512 299.704C280.051 305.677 274.248 308.664 268.104 308.664ZM330.323 309.304C322.558 309.304 316.67 307.171 312.659 302.904C308.734 298.637 306.771 293.261 306.771 286.776C306.771 282.168 307.71 277.56 309.587 272.952C311.55 268.259 314.323 264.163 317.907 260.664C321.491 257.165 325.672 254.819 330.451 253.624C327.806 251.747 325.843 249.485 324.563 246.84C323.283 244.109 322.643 241.251 322.643 238.264C322.643 233.827 323.838 229.475 326.227 225.208C328.702 220.941 332.072 217.485 336.339 214.84C340.691 212.109 345.47 210.744 350.675 210.744C356.051 210.744 360.446 212.152 363.859 214.968C367.272 217.784 368.979 221.709 368.979 226.744C368.979 230.499 368.04 233.656 366.163 236.216C364.286 238.776 362.067 240.056 359.507 240.056C357.203 240.056 355.198 238.904 353.491 236.6C355.027 236.088 356.35 234.68 357.459 232.376C358.568 230.072 359.123 227.768 359.123 225.464C359.123 222.989 358.44 221.197 357.075 220.088C355.71 218.893 354.046 218.296 352.083 218.296C349.608 218.296 347.347 219.192 345.299 220.984C343.336 222.691 341.8 224.952 340.691 227.768C339.582 230.499 339.027 233.357 339.027 236.344C339.027 240.44 340.094 244.067 342.227 247.224C344.36 250.296 347.603 252.387 351.955 253.496C347.603 254.435 343.678 256.568 340.179 259.896C336.68 263.224 333.95 267.107 331.987 271.544C330.024 275.896 329.043 280.077 329.043 284.088C329.043 287.928 330.024 291.043 331.987 293.432C334.035 295.821 337.107 297.016 341.203 297.016C345.47 297.016 349.907 295.864 354.515 293.56C359.208 291.171 362.664 287.971 364.883 283.96L367.827 285.24C364.499 292.579 359.379 298.424 352.467 302.776C345.555 307.128 338.174 309.304 330.323 309.304ZM395.985 309.304C390.609 309.304 385.873 308.365 381.777 306.488C377.681 304.611 374.524 302.008 372.305 298.68C370.086 295.267 368.977 291.341 368.977 286.904C368.977 283.149 369.745 279.736 371.281 276.664C372.902 273.592 375.036 271.16 377.681 269.368C380.412 267.576 383.398 266.68 386.641 266.68C389.628 266.68 392.145 267.448 394.193 268.984C396.241 270.435 397.521 272.483 398.033 275.128C393.596 275.128 390.054 276.323 387.409 278.712C384.764 281.016 383.441 284.173 383.441 288.184C383.441 291.853 384.55 294.797 386.769 297.016C388.988 299.235 391.932 300.344 395.601 300.344C400.124 300.344 403.836 298.851 406.737 295.864C409.724 292.792 411.217 288.952 411.217 284.344C411.217 280.333 410.108 276.536 407.889 272.952C405.67 269.368 402.342 265.016 397.905 259.896C393.297 254.605 389.798 250.083 387.409 246.328C385.105 242.488 383.953 238.307 383.953 233.784C383.953 229.347 385.19 225.379 387.665 221.88C390.14 218.296 393.553 215.48 397.905 213.432C402.257 211.384 407.164 210.36 412.625 210.36C419.537 210.36 425.041 211.981 429.137 215.224C433.318 218.467 435.409 222.819 435.409 228.28C435.409 231.864 434.513 234.765 432.721 236.984C430.929 239.203 428.582 240.312 425.681 240.312C422.438 240.312 419.836 238.989 417.873 236.344C419.494 235.149 420.774 233.571 421.713 231.608C422.652 229.645 423.121 227.597 423.121 225.464C423.121 222.733 422.31 220.557 420.689 218.936C419.068 217.315 416.849 216.504 414.033 216.504C410.62 216.504 407.804 217.741 405.585 220.216C403.452 222.605 402.385 225.677 402.385 229.432C402.385 232.845 403.366 236.045 405.329 239.032C407.292 241.933 410.364 245.688 414.545 250.296C417.958 253.965 420.689 257.123 422.737 259.768C424.87 262.413 426.662 265.485 428.113 268.984C429.649 272.397 430.417 276.109 430.417 280.12C430.417 285.581 428.881 290.531 425.809 294.968C422.822 299.405 418.684 302.904 413.393 305.464C408.188 308.024 402.385 309.304 395.985 309.304ZM493.433 309.176C486.777 309.176 483.449 306.317 483.449 300.6C483.449 298.723 483.705 296.589 484.217 294.2C484.814 291.725 485.625 288.568 486.649 284.728C487.844 280.717 488.74 277.304 489.337 274.488C489.934 271.672 490.233 269.155 490.233 266.936C490.233 261.133 487.673 258.232 482.553 258.232C481.102 258.232 479.694 258.403 478.329 258.744L468.089 307H449.657L468.217 219.96C462.5 222.349 458.062 225.933 454.905 230.712C451.833 235.491 450.297 241.251 450.297 247.992C450.297 251.149 450.596 253.368 451.193 254.648C451.79 255.843 452.089 256.525 452.089 256.696C447.481 256.696 444.025 255.757 441.721 253.88C439.502 251.917 438.393 248.717 438.393 244.28C438.393 238.819 440.612 233.528 445.049 228.408C449.572 223.203 455.332 219.021 462.329 215.864C469.326 212.621 476.324 211 483.321 211C484.516 211 486.222 211.085 488.441 211.256L480.121 250.424L493.305 232.76C503.801 218.595 509.092 211.555 509.177 211.64H522.617L487.033 252.6L491.513 252.472C497.316 252.472 501.412 253.709 503.801 256.184C506.19 258.573 507.385 261.901 507.385 266.168C507.385 268.643 507.086 271.288 506.489 274.104C505.892 276.835 505.038 280.248 503.929 284.344C503.246 286.989 502.606 289.592 502.009 292.152C501.412 294.712 501.113 296.845 501.113 298.552C501.113 300.515 501.54 302.264 502.393 303.8C503.332 305.336 504.569 306.403 506.105 307C500.9 308.451 496.676 309.176 493.433 309.176Z" fill="black"/>
<path d="M91.0982 67.3173C90.0977 66.1006 89.4796 64.6151 89.3216 63.0479C89.1637 61.4807 89.4729 59.9017 90.2103 58.5098C90.9478 57.118 92.0806 55.9754 93.466 55.2259C94.8515 54.4764 96.4277 54.1536 97.9962 54.298C99.5648 54.4425 101.056 55.0477 102.281 56.0376C103.506 57.0275 104.411 58.3578 104.882 59.8609C105.353 61.3641 105.369 62.9729 104.927 64.485C104.485 65.997 103.606 67.3446 102.401 68.3581C101.56 69.0688 100.581 69.5979 99.5262 69.9121C98.4712 70.2264 97.3625 70.3191 96.27 70.1843C95.1774 70.0495 94.1245 69.6903 93.1774 69.129C92.2304 68.5678 91.4097 67.8167 90.7668 66.923L91.0982 67.3173Z" fill="black"/>
<path d="M93.0822 37.7616C92.0818 36.5449 91.4637 35.0595 91.3057 33.4922C91.1477 31.925 91.4569 30.3461 92.1944 28.9542C92.9319 27.5623 94.0646 26.4197 95.4501 25.6702C96.8355 24.9208 98.4118 24.5979 99.9803 24.7424C101.549 24.8868 103.04 25.4921 104.265 26.482C105.49 27.4718 106.395 28.8021 106.866 30.3052C107.337 31.8084 107.353 33.4173 106.911 34.9293C106.47 36.4413 105.591 37.7889 104.385 38.8024C103.571 39.4865 102.629 40.0012 101.614 40.3163C100.599 40.6315 99.5311 40.7407 98.4732 40.6377C97.4152 40.5346 96.3886 40.2213 95.4533 39.7161C94.5181 39.211 93.6932 38.5241 93.027 37.6959L93.0822 37.7616Z" fill="black"/>
<path d="M158.923 66.0731C157.561 64.4523 156.898 62.3568 157.081 60.2475C157.264 58.1383 158.277 56.188 159.898 54.8259C161.519 53.4637 162.532 51.5135 162.715 49.4042C162.898 47.2949 162.236 45.1994 160.873 43.5786C159.511 41.9578 157.561 40.9446 155.452 40.7617C153.342 40.5788 151.247 41.2414 149.626 42.6035C148.005 43.9657 145.91 44.6282 143.801 44.4454C141.691 44.2625 139.741 43.2492 138.379 41.6284C137.017 40.0076 135.067 38.9944 132.957 38.8115C130.848 38.6286 128.752 39.2912 127.132 40.6533C125.511 42.0155 124.498 43.9657 124.315 46.075C124.132 48.1843 124.794 50.2798 126.157 51.9006C127.519 53.5213 128.181 55.6169 127.998 57.7261C127.816 59.8354 126.802 61.7856 125.181 63.1478C124.379 63.8223 123.717 64.6482 123.234 65.5785C122.75 66.5087 122.455 67.5251 122.365 68.5695C122.274 69.6139 122.39 70.6659 122.706 71.6654C123.022 72.665 123.532 73.5925 124.206 74.395C124.881 75.1976 125.707 75.8594 126.637 76.3427C127.567 76.826 128.584 77.1214 129.628 77.212C130.672 77.3025 131.724 77.1864 132.724 76.8704C133.724 76.5544 134.651 76.0446 135.454 75.3701C137.074 74.008 139.17 73.3454 141.279 73.5283C143.388 73.7112 145.339 74.7244 146.701 76.3452C148.063 77.966 150.013 78.9793 152.122 79.1622C154.232 79.345 156.327 78.6825 157.948 77.3203C159.569 75.9582 160.582 74.0079 160.765 71.8987C160.948 69.7894 160.285 67.6939 158.923 66.0731Z" fill="black"/>
<path d="M407.845 373.953C407.845 375.284 408.374 376.561 409.315 377.503C410.257 378.444 411.534 378.973 412.865 378.973C414.196 378.973 415.473 378.444 416.415 377.503C417.356 376.561 417.885 375.284 417.885 373.953C417.9 371.285 418.969 368.731 420.861 366.85C422.752 364.968 425.312 363.912 427.98 363.912C429.311 363.912 430.588 363.383 431.53 362.442C432.471 361.5 433 360.223 433 358.892C433 357.561 432.471 356.284 431.53 355.342C430.588 354.401 429.311 353.872 427.98 353.872C425.358 353.859 422.844 352.826 420.97 350.992C419.096 349.159 418.009 346.668 417.939 344.047C417.939 342.709 417.408 341.425 416.461 340.478C415.514 339.532 414.231 339 412.892 339C411.553 339 410.27 339.532 409.323 340.478C408.377 341.425 407.845 342.709 407.845 344.047C407.777 346.631 406.72 349.091 404.892 350.919C403.064 352.747 400.604 353.804 398.02 353.872C396.689 353.872 395.412 354.401 394.47 355.342C393.529 356.284 393 357.561 393 358.892C393 360.223 393.529 361.5 394.47 362.442C395.412 363.383 396.689 363.912 398.02 363.912C400.641 363.982 403.132 365.069 404.965 366.943C406.799 368.817 407.832 371.331 407.845 373.953ZM412.865 357.057C413.42 357.688 414.015 358.284 414.646 358.838C414.015 359.393 413.42 359.988 412.865 360.619C412.311 359.988 411.715 359.393 411.084 358.838C411.715 358.284 412.311 357.688 412.865 357.057Z" fill="black"/>
<path d="M446 372.012C446 372.794 446 373.625 446 374.457C446 375.288 446 375.582 446 376.119C446 376.657 446 377.146 446 377.684C446 378.222 446 379.445 446 380.276C447.068 392.747 452.767 404.365 461.974 412.843C471.182 421.32 483.23 426.043 495.746 426.08C508.262 426.116 520.338 421.465 529.596 413.042C538.853 404.618 544.62 393.033 545.761 380.57C546.08 377.611 546.08 374.628 545.761 371.669C544.845 361.602 540.909 352.046 534.47 344.253C528.03 336.461 519.386 330.795 509.671 327.999V316.996C509.671 315.79 509.192 314.633 508.339 313.78C507.486 312.927 506.329 312.448 505.123 312.448H500.575V303.548C500.575 302.342 500.096 301.185 499.243 300.332C498.39 299.479 497.234 299 496.027 299C494.821 299 493.664 299.479 492.812 300.332C491.959 301.185 491.479 302.342 491.479 303.548V312.448H486.932C485.725 312.448 484.569 312.927 483.716 313.78C482.863 314.633 482.384 315.79 482.384 316.996V327.999C472.563 330.766 463.82 336.461 457.32 344.325C450.819 352.188 446.871 361.846 446 372.012ZM536.665 372.012C536.665 372.305 536.665 372.647 536.665 372.941C536.665 374.017 536.665 375.141 536.665 376.266C536.665 377.391 536.665 378.662 536.665 379.836C536.665 379.836 536.665 380.276 536.665 380.472C535.687 388.101 531.775 391.817 523.217 393.382C523.217 389.763 523.217 385.998 523.217 382.086C523.217 380.129 523.217 378.124 523.217 376.071C523.217 374.017 523.217 372.012 523.217 370.056C523.217 366.143 523.217 362.378 523.217 358.759C531.873 360.471 535.736 364.236 536.714 372.012H536.665ZM508.938 339.345C511.289 342.109 512.754 345.517 513.143 349.125C509.476 349.125 505.71 349.125 501.7 349.125H495.93H486.883C485.676 349.125 484.52 349.604 483.667 350.457C482.814 351.31 482.335 352.467 482.335 353.673C482.335 354.879 482.814 356.036 483.667 356.889C484.52 357.742 485.676 358.221 486.883 358.221H496.076H501.945C506.248 358.221 510.405 358.221 514.219 358.221C514.219 361.987 514.219 366.046 514.219 370.3C514.219 372.305 514.219 374.31 514.219 376.364C514.219 378.418 514.219 380.472 514.219 382.428C514.219 396.121 514.219 407.906 509.035 413.334C507.233 414.834 505.151 415.961 502.909 416.649C500.668 417.338 498.312 417.574 495.978 417.344C493.645 417.574 491.289 417.338 489.048 416.649C486.806 415.961 484.724 414.834 482.921 413.334C480.565 410.573 479.099 407.164 478.716 403.554H505.123C505.721 403.554 506.312 403.436 506.864 403.208C507.415 402.979 507.917 402.644 508.339 402.222C508.761 401.799 509.096 401.298 509.325 400.746C509.554 400.195 509.671 399.603 509.671 399.006C509.671 398.409 509.554 397.817 509.325 397.265C509.096 396.714 508.761 396.212 508.339 395.79C507.917 395.368 507.415 395.033 506.864 394.804C506.312 394.576 505.721 394.458 505.123 394.458H489.768C485.562 394.458 481.503 394.458 477.787 394.458C477.787 390.692 477.787 386.634 477.787 382.379C477.787 380.374 477.787 378.369 477.787 376.266C477.787 374.163 477.787 372.158 477.787 370.153C477.787 356.509 477.787 344.675 482.97 339.247C484.757 337.751 486.821 336.622 489.045 335.925C491.269 335.229 493.609 334.978 495.93 335.188C498.263 334.958 500.619 335.195 502.86 335.883C505.102 336.571 507.184 337.698 508.987 339.198L508.938 339.345ZM454.949 376.217C454.949 365.556 458.519 360.764 468.642 358.906C468.642 362.476 468.642 366.29 468.642 370.153C468.642 372.109 468.642 374.114 468.642 376.168C468.642 378.222 468.642 380.227 468.642 382.183C468.642 386.096 468.642 389.861 468.642 393.48C458.519 391.573 454.949 386.682 454.949 376.217ZM470.305 344.235C469.875 345.991 469.549 347.771 469.327 349.565C467.515 349.8 465.718 350.143 463.947 350.592C465.829 348.248 467.961 346.117 470.305 344.235ZM463.947 401.842C465.702 402.289 467.482 402.632 469.278 402.869C469.5 404.663 469.826 406.443 470.256 408.2C467.929 406.315 465.814 404.184 463.947 401.842ZM521.506 408.2C521.935 406.443 522.262 404.664 522.484 402.869C524.279 402.632 526.059 402.289 527.814 401.842C525.96 404.164 523.862 406.279 521.555 408.151L521.506 408.2ZM527.863 350.641C526.092 350.192 524.296 349.85 522.484 349.614C522.262 347.82 521.935 346.04 521.506 344.284C523.864 346.147 526.012 348.263 527.912 350.592L527.863 350.641ZM491.431 321.544H500.526V326.434C499.01 326.434 497.494 326.434 495.93 326.434C494.365 326.434 492.898 326.434 491.431 326.434V321.544Z" fill="black"/>
<path d="M63.8296 81.82C74.545 108.809 85.0869 135.592 95.8024 162.581C92.7457 164.162 90.5201 167.141 90.1747 170.679C89.6112 176.451 93.9662 181.388 99.7159 181.95C105.657 182.53 110.711 178.323 111.257 172.737C111.639 168.827 109.666 165.25 106.59 163.07C122.496 138.868 138.403 114.667 154.309 90.4653C155.887 88.1755 154.663 84.8601 151.596 84.5608C123.615 81.829 95.6147 79.2834 67.8247 76.5704C64.5666 76.2523 62.7243 79.2683 63.8296 81.82ZM119.992 128.848L93.191 135.819C91.638 131.908 90.0851 127.997 88.5321 124.085L129.286 114.905C126.34 119.317 123.166 124.083 119.992 128.848ZM113.872 138.026C109.785 144.207 105.681 150.574 101.595 156.755C99.7316 152.061 97.8681 147.367 96.0045 142.674L113.872 138.026ZM135.214 105.708L85.755 116.859C84.202 112.947 82.649 109.036 81.0961 105.124L144.353 91.3732C141.37 96.1577 138.388 100.942 135.214 105.708ZM78.4924 98.1026C76.8023 93.6139 74.9206 89.1064 73.2305 84.6177C88.9462 86.152 104.47 87.6675 120.186 89.2018L78.4924 98.1026ZM100.425 174.687C98.8917 174.538 97.6773 173.103 97.8228 171.613C97.9682 170.124 99.2272 169.119 100.779 169.082C100.97 169.101 100.97 169.101 101.162 169.12C102.695 169.269 103.91 170.704 103.764 172.194C103.427 173.665 101.958 174.837 100.425 174.687Z" fill="black"/>
</g>
<defs>
<clipPath id="clip0_351_73">
<rect width="546" height="425.345" fill="white" transform="translate(0 0.734375)"/>
</clipPath>
</defs>
</svg>
